<?xml version="1.0" ?><svg fill="none" height="24" viewBox="0 0 24 24" width="24" xmlns="http://www.w3.org/2000/svg"><path clip-rule="evenodd" d="M21.3489 4.64183C21.4734 4.76317 21.526 4.94053 21.4877 5.11016C20.9359 7.55335 19.7598 13.9696 19.4822 20.0229C19.474 20.2015 19.3712 20.362 19.2124 20.4441C19.0537 20.5262 18.8632 20.5173 18.7127 20.4208C16.3647 18.9142 11.6602 16.0278 11.0091 15.6323C10.8858 15.5573 10.8008 15.4327 10.7761 15.2905C10.7514 15.1482 10.7894 15.0023 10.8803 14.8901C10.9514 14.8024 11.0276 14.706 11.1105 14.6011C11.5439 14.0526 12.1621 13.2704 13.2013 12.2766C13.4009 12.0858 13.7174 12.0929 13.9083 12.2925C14.0991 12.4921 14.092 12.8086 13.8924 12.9994C12.9904 13.862 12.432 14.5445 12.0123 15.0733C13.2789 15.8492 16.4196 17.7821 18.5284 19.1177C18.8395 13.8342 19.7665 8.44365 20.3378 5.69741C16.0184 6.93311 8.54822 10.0196 4.32406 11.8562L7.98141 13.2367C9.62636 12.1619 13.2647 9.91045 16.2836 8.46108C16.5325 8.34157 16.8312 8.44648 16.9507 8.69542C17.0703 8.94436 16.9653 9.24305 16.7164 9.36257C13.6191 10.8496 9.82741 13.2144 8.3188 14.2115C8.18492 14.3 8.01669 14.3189 7.86654 14.2622L2.82343 12.3587C2.63357 12.287 2.50586 12.1077 2.5002 11.9048C2.49453 11.702 2.61203 11.5158 2.7976 11.4337C6.88855 9.62258 16.2667 5.68497 20.8771 4.51536C21.0456 4.4726 21.2243 4.52049 21.3489 4.64183Z" fill="black" fill-rule="evenodd"/></svg>