<?xml version="1.0" ?><!DOCTYPE svg  PUBLIC '-//W3C//DTD SVG 1.1//EN'  'http://www.w3.org/Graphics/SVG/1.1/DTD/svg11.dtd'><svg id="Layer_1" style="enable-background:new 0 0 30 30.2;" version="1.1" viewBox="0 0 30 30.2" xml:space="preserve" xmlns="http://www.w3.org/2000/svg" xmlns:xlink="http://www.w3.org/1999/xlink"><style type="text/css">
	.st0{fill:none;stroke:#414042;stroke-width:1.25;stroke-linecap:round;stroke-linejoin:round;stroke-miterlimit:10;}
	.st1{fill:none;stroke:#414042;stroke-width:1.1713;stroke-linecap:round;stroke-linejoin:round;stroke-miterlimit:10;}
</style><g><path class="st0" d="M8.3,26.7c-0.8-0.5-4.7,2.4-5.3,1.7c-0.6-0.6,2-4.7,1.5-5.4C2.9,20.8,2,18.1,2,15.2C2,7.8,8,1.7,15.5,1.7   S29,7.8,29,15.2s-6,13.5-13.5,13.5c-1,0-1.9-0.1-2.8-0.3"/><path class="st0" d="M12.7,8.4l1.2,3c0.1,0.2,0,0.4-0.2,0.5c-0.5,0.3-1.2,1-0.4,2.1c1,1.4,3.7,4.9,5.9,2.6c0.1-0.1,0.3-0.2,0.5-0.1   l3.2,1.4c0.2,0.1,0.3,0.4,0.2,0.6c-0.7,1.4-3.4,5.1-10.1-0.7c-6.8-5.9-2.4-8.8-0.9-9.5C12.3,8,12.6,8.1,12.7,8.4z"/></g></svg>